<?xml version="1.0" encoding="utf-8"?>
<!-- Generator: Adobe Illustrator 27.4.0, SVG Export Plug-In . SVG Version: 6.00 Build 0)  -->
<svg version="1.1" id="Layer_1" xmlns="http://www.w3.org/2000/svg" xmlns:xlink="http://www.w3.org/1999/xlink" x="0px" y="0px"
	 viewBox="0 0 100 100" style="enable-background:new 0 0 100 100;" xml:space="preserve">
<style type="text/css">
	.st0{fill:#F4773B;}
	.st1{fill:#D75E2A;}
	.st2{fill:#404262;}
</style>
<g>
	<circle class="st0" cx="50" cy="50" r="48"/>
	<path class="st1" d="M13.1,80.69C21.9,91.26,35.16,98,50,98c14.25,0,27.04-6.21,35.83-16.08C55.04,87.5,29.4,84.38,13.1,80.69z"/>
	<path class="st2" d="M67.67,37.03c4.52-0.57,8.81-0.86,12.75-0.86c1.07,0,2.11,0.02,3.12,0.06c6.96,0.3,11.14,1.58,13.25,3.02
		c-0.56-2.45-1.31-4.83-2.23-7.13c-2.95-0.86-6.55-1.39-10.77-1.57c-5.3-0.23-11.31,0.11-17.72,0.95c-0.39-2.23-0.46-4.43-0.2-6.58
		C66.82,17,72.06,11.49,74.97,9c-1.41-0.86-2.87-1.65-4.38-2.37c-3.51,3.33-8.34,9.3-9.36,17.67c-0.32,2.6-0.24,5.23,0.21,7.89
		c-2.36,0.39-4.76,0.85-7.18,1.37c-2.64-7.96-5.52-15.13-8.44-20.93c-2.06-4.1-4.02-7.28-5.89-9.58c-1.72,0.37-3.41,0.83-5.07,1.38
		c0.3,0.28,0.62,0.61,0.98,1.03c1.76,2.03,3.78,5.26,5.84,9.36c2.75,5.49,5.48,12.26,7.99,19.79c-1.09,0.27-2.19,0.54-3.29,0.83
		c-2.1,0.56-4.18,1.15-6.21,1.77c-0.75-1.96-1.75-3.77-3-5.43c-6.43-8.44-17.85-10.52-25.33-10.92c-1.13,1.47-2.17,3.01-3.12,4.61
		c6.19,0.01,18.62,1.1,24.74,9.15c0.93,1.22,1.68,2.56,2.25,4.02c-9.36,3.16-17.74,6.96-24.24,11.04c-3.81,2.39-6.82,4.78-9,7.13
		c0.37,2.58,0.94,5.1,1.7,7.53c0.35-0.97,1-1.93,1.62-2.7c1.8-2.24,4.81-4.71,8.7-7.15c6.03-3.78,13.8-7.32,22.53-10.3
		c0.57,5.7-0.73,12.66-3.92,20.82c-3.99,10.23-6.64,18.75-8.33,25.82c1.37,0.85,2.79,1.63,4.25,2.34
		c1.59-7.01,4.24-15.71,8.43-26.46c3.63-9.31,4.99-17.33,4.09-23.99c2.06-0.63,4.16-1.23,6.29-1.8c1.19-0.32,2.38-0.62,3.56-0.9
		c0.87,2.85,1.71,5.78,2.5,8.77c3.48,13.15,5.69,25.79,6.2,35.59c0.24,4.58,0.09,8.39-0.44,11.02c-0.14,0.7-0.3,1.25-0.45,1.7
		c1.75-0.34,3.46-0.77,5.13-1.29c0.54-2.97,0.68-6.82,0.43-11.58C64.26,74.12,62,61.11,58.43,47.61c-0.77-2.93-1.59-5.8-2.44-8.6
		c2.35-0.49,4.66-0.93,6.94-1.3c2.11,5.78,5.99,11.68,11.62,17.63C81.75,62.98,86.95,69.86,90,75.81c0.07,0.14,0.14,0.27,0.21,0.41
		c1-1.53,1.92-3.12,2.74-4.77c-3.33-5.79-8.36-12.27-15.02-19.31C73.05,46.97,69.63,41.92,67.67,37.03z"/>
</g>
</svg>
