<?xml version="1.0" encoding="utf-8"?>
<!-- Generator: Adobe Illustrator 27.4.0, SVG Export Plug-In . SVG Version: 6.00 Build 0)  -->
<svg version="1.1" id="Layer_1" xmlns="http://www.w3.org/2000/svg" xmlns:xlink="http://www.w3.org/1999/xlink" x="0px" y="0px"
	 viewBox="0 0 100 100" style="enable-background:new 0 0 100 100;" xml:space="preserve">
<style type="text/css">
	.st0{fill:#AFA88A;}
	.st1{fill:#D6D1BE;}
	.st2{fill:#BCB7A1;}
	.st3{fill:#F7F2DF;}
	.st4{fill:#CFB788;}
	.st5{fill:#F8DA8D;}
	.st6{fill:#CB7D48;}
	.st7{fill:#B26433;}
</style>
<g>
	<path class="st0" d="M65.68,44.92l10.34-1.14c1.59-0.11,2.82-1.4,2.82-2.96V29.26l-18.46,2.09"/>
	<polygon class="st1" points="66.98,12.21 100,12.21 100,33.61 61.21,35.54 	"/>
	<path class="st1" d="M84.86,12.85l2.97-3.06c1.79-1.84,4.27-2.89,6.87-2.89h3.11c1.21,0,2.2,0.96,2.2,2.15v5.9L84.86,12.85z"/>
	<path class="st0" d="M49.51,50.29h-5.87c-0.85,5.45,0.91,9.61,1.83,11.32c0.28,0.53,0.84,0.85,1.45,0.85
		c1.12,0,1.92-1.08,1.55-2.12C46.66,55.21,49.51,50.29,49.51,50.29z"/>
	<path class="st2" d="M58.41,9.85l-29.2,21.5l-10.65,2.02c-0.7,0.13-1.21,0.73-1.21,1.43v3.95l3.16,6.6l14.63,11.58l1.53,4.89
		c1.34,4.27,5.37,7.18,9.94,7.18h3.59c5.61,0,10.43-3.92,11.45-9.31l1.7-9.03l3.44-0.58c1.34-0.23,2.33-1.36,2.33-2.7V9.85H58.41z
		 M57.76,58.99c-0.67,3.56-3.85,6.14-7.55,6.14h-3.59c-2.85,0-5.32-1.79-6.15-4.44l-2.71-8.62l21.75-2.36L57.76,58.99z"/>
	<path class="st1" d="M11.94,12.65l-1.13,3.9c-0.16,0.55-0.02,1.14,0.37,1.57l10.67,11.57l8.66-12.25l-16.35-5.89
		C13.24,11.21,12.21,11.72,11.94,12.65z"/>
	<g>
		<path class="st1" d="M38.57,44.21l27.12,0.71V8.23L38.57,8.94c-9.97,0-18.05,7.9-18.05,17.64v0
			C20.52,36.32,28.6,44.21,38.57,44.21z"/>
		<path class="st1" d="M38.57,44.21l27.12,0.71V8.23L38.57,8.94c-9.97,0-18.05,7.9-18.05,17.64v0
			C20.52,36.32,28.6,44.21,38.57,44.21z"/>
		<path class="st3" d="M20.53,25.99h45.15V8.23L38.57,8.94C28.8,8.94,20.85,16.52,20.53,25.99z"/>
		<path class="st0" d="M48.21,33.9l17.47,0.71V18.54l-17.47,0.71c-4.14,0-7.5,3.28-7.5,7.33v0C40.71,30.62,44.07,33.9,48.21,33.9z"
			/>
		<path class="st4" d="M29.9,11.1c-5.59,3-9.39,8.8-9.39,15.47s3.79,12.48,9.39,15.47V11.1z"/>
		<path class="st5" d="M20.54,25.99h9.36V11.1C24.48,14.01,20.76,19.56,20.54,25.99z"/>
	</g>
	<g>
		<g>
			<path class="st6" d="M33.6,51.06c0,0-2.21-10.14-15.27-12.31l-2.69-0.65c-1.01-0.24-1.97,0.55-1.97,1.61v2.12
				c-6.9,5.42-11.61,13.4-13.04,22.38L0.07,84.47c-0.47,2.97,1.53,5.75,4.42,6.12l18.72,2.46c3.63,0.48,6.9-2.27,7.2-6.04
				l0.81-26.13c0.07-2.2,1.81-3.94,3.93-3.94L33.6,51.06z"/>
			<path class="st7" d="M25.75,45.51c-10.34,6.11-7.42,20.51-7.42,20.51l1.57,20.03c0,0-15.04-0.78-19.86-1.34
				c-0.33,2.87,1.64,5.51,4.44,5.88l18.72,2.46c3.63,0.48,6.9-2.27,7.2-6.04l0.81-26.13c0.07-2.2,1.81-3.94,3.93-3.94
				C32.64,48.57,25.75,45.51,25.75,45.51z"/>
			<ellipse class="st7" cx="15.47" cy="79.86" rx="7.61" ry="7.86"/>
		</g>
		<ellipse class="st2" cx="15.47" cy="79.86" rx="5.76" ry="5.95"/>
	</g>
	<polygon class="st3" points="73.25,23.31 100,23.31 100,12.21 71.11,12.21 	"/>
</g>
</svg>
