<?xml version="1.0" encoding="utf-8"?>
<!-- Generator: Adobe Illustrator 27.4.0, SVG Export Plug-In . SVG Version: 6.00 Build 0)  -->
<svg version="1.1" id="Layer_1" xmlns="http://www.w3.org/2000/svg" xmlns:xlink="http://www.w3.org/1999/xlink" x="0px" y="0px"
	 viewBox="0 0 100 100" style="enable-background:new 0 0 100 100;" xml:space="preserve">
<style type="text/css">
	.st0{fill:#3C8C38;}
	.st1{fill:#A3CA9D;}
	.st2{fill:#17A610;}
	.st3{fill:#4CB042;}
	.st4{fill:#9BC49A;}
	.st5{fill:#D0D0D0;}
	.st6{fill:#83D975;}
	.st7{fill:#7CC96F;}
	.st8{fill:#4D8E4B;}
	.st9{fill:#2B9027;}
	.st10{fill:#5FC259;}
	.st11{fill:#42B438;}
	.st12{fill:#6DC666;}
	.st13{fill:#4D8F48;}
	.st14{fill:#6EDA5E;}
	.st15{fill:#66BA56;}
	.st16{fill:#4DC93F;}
	.st17{fill:#1F5417;}
	.st18{fill:#385831;}
	.st19{fill:#90D58A;}
	.st20{fill:#579656;}
	.st21{fill:#1E4E19;}
	.st22{fill:#DADADA;}
	.st23{fill:#65CC55;}
	.st24{fill:#48AF39;}
	.st25{fill:#173A14;}
	.st26{fill:#77CB67;}
	.st27{fill:#87D080;}
	.st28{fill:#66B558;}
	.st29{fill:#C1C1C1;}
	.st30{fill:#1D4F14;}
	.st31{fill:#1D4C16;}
	.st32{fill:#498A45;}
	.st33{fill:#5FCE4D;}
	.st34{fill:#A2CF98;}
	.st35{fill:#51954E;}
	.st36{fill:#1F5518;}
	.st37{fill:#66D556;}
	.st38{fill:#BED0B9;}
	.st39{fill:#C0E0B9;}
	.st40{fill:#689E67;}
	.st41{fill:#60B951;}
	.st42{fill:#51964E;}
	.st43{fill:#FFFFFF;}
	.st44{fill:#81DB71;}
	.st45{fill:#92D082;}
	.st46{fill:#ABCEA6;}
	.st47{fill:#67CC58;}
</style>
<g>
	<path class="st0" d="M89.02,95H10.98C7.68,95,5,92.32,5,89.02V10.98C5,7.68,7.68,5,10.98,5h78.03C92.32,5,95,7.68,95,10.98v78.03
		C95,92.32,92.32,95,89.02,95z"/>
	<g>
		<path class="st1" d="M16.25,16.25H5v-5.27C5,7.68,7.68,5,10.98,5h5.27V16.25z"/>
		<rect x="16.25" y="5" class="st2" width="11.25" height="11.25"/>
		<rect x="27.5" y="5" class="st3" width="11.25" height="11.25"/>
		<rect x="38.75" y="5" class="st4" width="11.25" height="11.25"/>
		<rect x="50" y="5" class="st5" width="11.25" height="11.25"/>
		<rect x="61.25" y="5" class="st6" width="11.25" height="11.25"/>
		<rect x="72.5" y="5" class="st7" width="11.25" height="11.25"/>
		<path class="st8" d="M95,16.25H83.75V5h5.27C92.32,5,95,7.68,95,10.98V16.25z"/>
		<rect x="5" y="16.25" class="st9" width="11.25" height="11.25"/>
		<rect x="16.25" y="16.25" class="st10" width="11.25" height="11.25"/>
		<rect x="27.5" y="16.25" class="st11" width="11.25" height="11.25"/>
		<rect x="38.75" y="16.25" class="st12" width="11.25" height="11.25"/>
		<rect x="50" y="16.25" class="st13" width="11.25" height="11.25"/>
		<rect x="61.25" y="16.25" class="st14" width="11.25" height="11.25"/>
		<rect x="72.5" y="16.25" class="st15" width="11.25" height="11.25"/>
		<rect x="83.75" y="16.25" class="st5" width="11.25" height="11.25"/>
		<rect x="5" y="27.5" class="st16" width="11.25" height="11.25"/>
		<rect x="16.25" y="27.5" class="st17" width="11.25" height="11.25"/>
		<rect x="27.5" y="27.5" class="st18" width="11.25" height="11.25"/>
		<rect x="38.75" y="27.5" class="st19" width="11.25" height="11.25"/>
		<rect x="50" y="27.5" class="st20" width="11.25" height="11.25"/>
		<rect x="61.25" y="27.5" class="st21" width="11.25" height="11.25"/>
		<rect x="72.5" y="27.5" class="st18" width="11.25" height="11.25"/>
		<rect x="83.75" y="27.5" class="st22" width="11.25" height="11.25"/>
		<rect x="5" y="38.75" class="st16" width="11.25" height="11.25"/>
		<rect x="16.25" y="38.75" class="st21" width="11.25" height="11.25"/>
		<rect x="27.5" y="38.75" width="11.25" height="11.25"/>
		<rect x="38.75" y="38.75" class="st23" width="11.25" height="11.25"/>
		<rect x="50" y="38.75" class="st24" width="11.25" height="11.25"/>
		<rect x="61.25" y="38.75" width="11.25" height="11.25"/>
		<rect x="72.5" y="38.75" class="st25" width="11.25" height="11.25"/>
		<rect x="83.75" y="38.75" class="st26" width="11.25" height="11.25"/>
		<rect x="5" y="50" class="st27" width="11.25" height="11.25"/>
		<rect x="16.25" y="50" class="st28" width="11.25" height="11.25"/>
		<rect x="27.5" y="50" class="st29" width="11.25" height="11.25"/>
		<rect x="38.75" y="50" class="st30" width="11.25" height="11.25"/>
		<rect x="50" y="50" class="st31" width="11.25" height="11.25"/>
		<rect x="61.25" y="50" class="st29" width="11.25" height="11.25"/>
		<rect x="72.5" y="50" class="st32" width="11.25" height="11.25"/>
		<rect x="83.75" y="50" class="st33" width="11.25" height="11.25"/>
		<rect x="5" y="61.25" class="st34" width="11.25" height="11.25"/>
		<rect x="16.25" y="61.25" class="st35" width="11.25" height="11.25"/>
		<rect x="27.5" y="61.25" class="st18" width="11.25" height="11.25"/>
		<rect x="38.75" y="61.25" width="11.25" height="11.25"/>
		<rect x="50" y="61.25" width="11.25" height="11.25"/>
		<rect x="61.25" y="61.25" class="st36" width="11.25" height="11.25"/>
		<rect x="72.5" y="61.25" class="st37" width="11.25" height="11.25"/>
		<rect x="83.75" y="61.25" class="st38" width="11.25" height="11.25"/>
		<rect x="5" y="72.5" class="st39" width="11.25" height="11.25"/>
		<rect x="16.25" y="72.5" class="st40" width="11.25" height="11.25"/>
		<rect x="27.5" y="72.5" width="11.25" height="11.25"/>
		<rect x="38.75" y="72.5" width="11.25" height="11.25"/>
		<rect x="50" y="72.5" width="11.25" height="11.25"/>
		<rect x="61.25" y="72.5" width="11.25" height="11.25"/>
		<rect x="72.5" y="72.5" class="st41" width="11.25" height="11.25"/>
		<rect x="83.75" y="72.5" class="st42" width="11.25" height="11.25"/>
		<path class="st43" d="M16.25,95h-5.27C7.68,95,5,92.32,5,89.02v-5.27h11.25V95z"/>
		<rect x="16.25" y="83.75" class="st44" width="11.25" height="11.25"/>
		<rect x="27.5" y="83.75" class="st25" width="11.25" height="11.25"/>
		<rect x="38.75" y="83.75" class="st45" width="11.25" height="11.25"/>
		<rect x="50" y="83.75" class="st46" width="11.25" height="11.25"/>
		<rect x="61.25" y="83.75" class="st31" width="11.25" height="11.25"/>
		<rect x="72.5" y="83.75" class="st0" width="11.25" height="11.25"/>
		<path class="st47" d="M89.02,95h-5.27V83.75H95v5.27C95,92.32,92.32,95,89.02,95z"/>
	</g>
</g>
</svg>
