<?xml version="1.0" encoding="utf-8"?>
<!-- Generator: Adobe Illustrator 27.4.0, SVG Export Plug-In . SVG Version: 6.00 Build 0)  -->
<svg version="1.1" id="Layer_1" xmlns="http://www.w3.org/2000/svg" xmlns:xlink="http://www.w3.org/1999/xlink" x="0px" y="0px"
	 viewBox="0 0 100 100" style="enable-background:new 0 0 100 100;" xml:space="preserve">
<style type="text/css">
	.st0{fill:#FF6D73;}
	.st1{fill:#FF3038;}
	.st2{fill:#F7F2DF;}
	.st3{fill:#FFDE46;}
	.st4{fill:#FFBA1D;}
</style>
<g>
	<g>
		<path class="st0" d="M96.48,93.83l-1.42,2.31H63.82c-7.54,0-14.4-4.95-17.35-12.66c-9.07-23.74-22.99-30.86-22.99-30.86
			l-1.57,43.52h-9.3l-3.16-33.8c-0.62-6.66-2.26-13.14-4.8-19.21C-4.39,21.45,5.54,9.52,11.08,4.91c1.77-1.47,4.21-1.39,5.9,0.2
			c7.42,7,28.35,27.96,38.75,50.72c2.04,4.47,5.89,7.58,10.34,8.44l0,0c2.54,0.49,5.15-0.32,7.08-2.22l2.23-2.19
			c0.89-0.87,2.17-1.04,3.21-0.42c3.37,1.97,10.91,6.94,17.12,15.2C99.81,80.11,100.09,87.95,96.48,93.83z"/>
		<path class="st1" d="M98.61,81.1H66.08c-7.52,0-14.43-4.03-18.21-10.54c-6.09-10.49-17.46-26.65-34.7-38.08
			c-5.6-3.71-9.3-7.6-11.65-11.44c-1.1,5.81-0.61,13.11,3.13,22.09c2.53,6.07,4.17,12.56,4.8,19.21l3.16,33.8h9.3l1.57-43.52
			c0,0,13.92,7.12,22.99,30.86c2.95,7.7,9.81,12.66,17.35,12.66h31.25l1.42-2.31C98.82,90.02,99.53,85.38,98.61,81.1z"/>
		<g>
			<path class="st2" d="M98.98,83.96H46.66c3.04,7.43,9.77,12.18,17.16,12.18h31.25l1.42-2.31C98.31,90.86,99.14,87.38,98.98,83.96z
				"/>
			<polygon class="st2" points="11.47,83.96 12.61,96.14 21.91,96.14 22.35,83.96 			"/>
		</g>
		<path class="st2" d="M68.53,62.45l6.58-5.66c1.11-0.96,2.63-1.11,3.88-0.38c1.75,1.02,4.33,2.61,6.63,4.32
			c1.92,1.44,2.15,4.49,0.45,6.25l-5.68,5.88c-0.79,0.82-1.99,0.93-2.9,0.27l-8.82-6.44C67.34,65.71,67.26,63.54,68.53,62.45z"/>
	</g>
	<path class="st3" d="M86.13,5.14c-9.82,1.03-16.4,4.39-20.74,8.03c-1.58,1.32-3.89,1.32-5.47,0c-4.35-3.63-10.92-7-20.74-8.03
		c-3.06-0.32-5.43,2.63-4.53,5.57l3.79,12.35c0.25,0.83,0.25,1.71,0,2.53l-3.79,12.35c-0.9,2.94,1.47,5.89,4.53,5.57
		c9.82-1.03,16.4-4.39,20.74-8.03c1.58-1.32,3.89-1.32,5.47,0c4.35,3.63,10.92,7,20.74,8.03c3.06,0.32,5.43-2.63,4.53-5.57
		L86.87,25.6c-0.25-0.83-0.25-1.71,0-2.53l3.79-12.35C91.57,7.77,89.19,4.82,86.13,5.14z"/>
	<path class="st4" d="M86.87,23.06l3.79-12.35c0.9-2.94-1.47-5.89-4.53-5.57c-9.82,1.03-16.4,4.4-20.74,8.03
		c-1.58,1.32-3.89,1.32-5.47,0c-4.35-3.63-10.92-7-20.74-8.03c-3.06-0.32-5.43,2.63-4.53,5.57l3.79,12.35
		c0.13,0.41,0.19,0.84,0.19,1.27h48.06C86.68,23.9,86.75,23.47,86.87,23.06z"/>
</g>
</svg>
