<?xml version="1.0" encoding="utf-8"?>
<!-- Generator: Adobe Illustrator 27.4.0, SVG Export Plug-In . SVG Version: 6.00 Build 0)  -->
<svg version="1.1" id="Layer_1" xmlns="http://www.w3.org/2000/svg" xmlns:xlink="http://www.w3.org/1999/xlink" x="0px" y="0px"
	 viewBox="0 0 100 100" style="enable-background:new 0 0 100 100;" xml:space="preserve">
<style type="text/css">
	.st0{fill:#FFBA1D;}
	.st1{fill:#FFDE46;}
	.st2{fill:#C60819;}
	.st3{fill:#FF6168;}
	.st4{fill:#FFFFFF;}
	.st5{fill:#D7D7D7;}
	.st6{fill:#6C181C;}
	.st7{fill:#FFE678;}
</style>
<g>
	<g>
		<path class="st0" d="M98,51.52C98,24.17,76.51,2,50,2S2,27.61,2,54.96S24.52,98,51.03,98S98,78.88,98,51.52z"/>
		<path class="st1" d="M2.01,54.15c8.46,13.48,24.78,20.87,42.98,20.87C71.52,75.02,92,55.88,92,28.5c0-0.33-0.01-0.66-0.01-0.99
			C83.79,12.3,68.06,2,50,2C23.75,2,2.43,27.1,2.01,54.15z"/>
		<path class="st1" d="M47.64,93.11C30.19,93.11,16,79.17,16,62.04c0-1.17,0.07-2.39,0.22-3.61l0.35-2.95l63.1,4.59l-0.54,5.16
			C77.47,81.13,63.94,93.11,47.64,93.11z"/>
		<path class="st2" d="M19.19,58.78c-0.13,1.07-0.2,2.16-0.2,3.26c0,15.51,12.83,28.08,28.65,28.08c14.83,0,27.03-11.04,28.5-25.2
			L19.19,58.78z"/>
		<path class="st3" d="M67.6,82.17c-21.13-21.54-39.26-9.6-44.34-5.41c5.05,8.01,14.08,13.35,24.39,13.35
			C55.4,90.11,62.44,87.09,67.6,82.17z"/>
		<path class="st4" d="M19,62.04c0,0.57,0.02,1.14,0.06,1.7c5.98,3.91,26.77,15.2,56.11,6.1c0.47-1.59,0.8-3.23,0.97-4.91
			l-56.95-6.14C19.07,59.85,19,60.93,19,62.04z"/>
		<path class="st5" d="M18.99,62.04c0,0.57,0.02,1.14,0.06,1.7c0.74,0.49,1.72,1.09,2.91,1.75c0-1.48,0-3.08,0-3.08l49.88,5.15
			l-1.01,3.47c1.42-0.36,2.86-0.75,4.33-1.2c0.47-1.59,0.8-3.23,0.97-4.91l-56.95-6.14C19.07,59.85,18.99,60.93,18.99,62.04z"/>
		<path class="st6" d="M57.24,49.39c3.04-6.25,8.65-11.35,15.3-12.03c5.7-0.69,11.56,1.96,16.07,5.35c2.24,1.6,2.85,4.91,1.34,7.32
			c-1.58,2.57-4.94,3.07-7.1,1.05c-3.02-2.77-6.61-5.1-10.47-4.88c-3.66,0.15-7.18,3.06-9.33,6.29c-0.06,0.09-0.15,0.24-0.17,0.25
			l-1.55,0.96C58.75,55.27,55.9,52.21,57.24,49.39L57.24,49.39z"/>
		<path class="st6" d="M43.51,47.14c-1.64-6.79-6.03-13.03-12.38-15.2c-5.42-1.96-11.7-0.69-16.82,1.59
			c-2.53,1.06-3.82,4.14-2.86,6.84c1,2.87,4.17,4.11,6.7,2.62c3.53-2.02,7.53-3.49,11.26-2.4c3.54,0.97,6.36,4.61,7.77,8.25
			c0.04,0.1,0.1,0.27,0.11,0.28l1.31,1.29C40.79,52.54,44.22,50.2,43.51,47.14L43.51,47.14z"/>
	</g>
	<ellipse transform="matrix(0.9742 -0.2258 0.2258 0.9742 -1.9131 9.8266)" class="st7" cx="42" cy="13.28" rx="10.06" ry="6.07"/>
</g>
</svg>
