<svg version="1.2" xmlns="http://www.w3.org/2000/svg" viewBox="0 0 162 180" width="162" height="180">
	<title>Logo-yoshi-svg</title>
	<style>
		.s0 { fill: #ffffff;stroke: #eaeaea;stroke-width: 1 } 
		.s1 { fill: #000000 } 
		.s2 { fill: #ffffff } 
		.s3 { fill: #72bf44 } 
		.s4 { fill: #0b0204 } 
		.s5 { opacity: 1;fill: #72bf44 } 
	</style>
	<path id="Layer" class="s0" d="m144.7 80.9q-11.4 9.3-24.5 13.5-5 1.6-10.3 2.9"/>
	<path id="Layer" fill-rule="evenodd" class="s1" d="m97.3 15.3q2.4-0.7 4.3 0c25.7 0.9 42.7 16.7 48.6 41.2q0.1 0.1 0.1 0.2 0 0 0.1 0.1 0.1 0 0.1 0.1 0.1 0 0.2 0l0.3 0.1q0.4 0.4 0.2 1.6l2.6 16 0.6 6.2q-0.8 5.1-0.2 10.3l-0.4 6.1-1.8 12.1-0.1 1.6q-1.3 1.1-0.7 3.2-0.3 0.6-0.3 1.9-1 0.2-0.9 2.3-0.3 0.8-0.2 1-1.5 2.9-1.8 5.9l-6.6 14.7-1.2 2.3q-3 2.5-4.3 6.2l-9.1 9q-14.1 11.1-30.9 15.3-0.6 0.2-0.3 0.4-2.9-0.4-4.7 0.8-0.2 0.2-0.9 0.1l-8.1 0.9-10-0.2q-13.5-1.5-25.5-6.6-0.6-0.3-0.7 0.2l-2-1.1q0.1-0.1 0.2-0.2 0.1-0.1 0-0.1l-12.2-7.9-5.1-5.3-5.6-7.3q-0.7-0.6-0.8-1l-6.2-12.3q0-0.7-0.2-0.9 0-3-1.8-5.2 0.1-0.4-0.2-0.9 0.5-2-0.7-2.7 0-1-0.5-1.6 0.9-0.5 0.3-2-0.2-0.6-0.9 0 0.3-1.8-0.4-3.1 0.9-2.5-0.4-4.1-1.3-8.7 0-17.5 1.3-1.6 0.5-3.5l0.5-2.6q0.8-0.6 0.9-1.8c2.3-20.3 20-40 35.6-52.4l1-0.8q1.6-0.5 3-2 1.7-0.6 3-2l5.1-3q0.5-1.1 1.9-1l4-2q1.7-1.5 4-2.1l4.7-1.6q-0.6-0.2 0.3-0.3 1.6 0.1 2.6-0.9l0.4-0.1q1.6 0.1 2.6-0.9l0.9-0.1q2.1 0.2 2.9-0.9l1.1-0.2zm-54.3 35q-25.7 22.9-24.9 56.9c1.8 27.5 16.5 51 44.9 56.9 33.1 6.9 65.2-9.1 76-41.7q6.7-20.1 5.6-41.4l-0.5-9.8q-1.3-11-6-22c-6.5-15.1-17.5-23.1-34-24.5-22.7-1-45 10.1-61.1 25.6z"/>
	<path id="Layer" class="s0" d="m66.5 98.3q-12.4-0.9-24.2-4.4"/>
	<path id="Layer" class="s2" d="m104.1 24.6q-10.4 9-9.1 21.2c2.1 20.1 25 33 43.8 27q2.7-0.8 5.3-1.7l0.6 9.8q-11.4 9.3-24.5 13.5-5 1.6-10.3 2.9c-14.2-8.9-29.8-9.3-43.4 1q-12.4-0.9-24.2-4.4c10.1-13.5 8.9-30 0.7-43.7 16.2-15.5 38.4-26.6 61.1-25.6z"/>
	<path id="Layer" class="s3" d="m104.1 24.6c16.5 1.4 27.6 9.4 34 24.5q4.7 11.1 6 22-2.6 0.9-5.3 1.7c-18.8 6-41.7-6.9-43.8-27q-1.3-12.2 9.1-21.2z"/>
	<path id="Layer" fill-rule="evenodd" class="s4" d="m223.3 72.4l1-2.5q5.4-9.3 9.5-19.2l0.3-1.1q1.4-1.1 2.8-0.3 11.4 6.3 22.7 12.6 0.2 0.1 0.4 0.1 0.2 0 0.4 0 0.2 0 0.4-0.1 0.2-0.1 0.3-0.2l7.5-7.3q0.1-0.1 0.2-0.2 0.2 0 0.3-0.1 0.1 0 0.3-0.1 0.1 0 0.2 0l16.9 1.6q1.5 0 2.5 0.5l16.5 2.5q0.5 0.1 0.9 0.5l8.6 9q0.1-0.1 0.2-0.1-0.1 0.6 0.8 0.7 0.2 0 0.3-0.1 0.1 0 0.2-0.1 0.2 0 0.3-0.1 0.1-0.1 0.1-0.2l7.3-13.1q-0.7 0.2 0.5-0.3 6.1 0 11.7-1.8l1.3-0.1q10.6-1 20.9-3.9l3.8-0.1q2.3 2.7 5.7 3.8 1 0.1 0.5 0.3l5.4 2.9q0.5 0.3 0.6-0.4 0.2-1.6 1.8-2.3l2.8-0.3 35.4-6.2q0.2 0 0.5 0 0.3 0.1 0.5 0.3 0.2 0.1 0.3 0.4 0.2 0.2 0.2 0.5l0.8 8.2 0.3 3.7 1.1 18.4q0 0.2 0.1 0.4 0.1 0.1 0.2 0.3 0.1 0.1 0.3 0.1 0.2 0.1 0.4 0.1l7.2-0.5q0.1 0 0.3-0.1 0.1 0 0.2-0.1 0.1-0.1 0.1-0.3 0-0.1 0-0.2l-0.9-9.8-0.4-9 0.2-5.8q0-0.5 0.6-0.5c7-0.2 14.4 0.5 22.2-0.2l17.3 0.3q0.1 0 0.3 0.1 0.1 0 0.2 0.1 0.1 0.1 0.2 0.3 0.1 0.1 0.1 0.2 0.4 1.7-0.2 3l-1.6 46.4-0.3 5.8q-1 2.4-0.7 4.4 0.8 4 0.2 6.9 0 0.1 0 0.1 0.1 0 0.3 0.1 0.1 0 0.1-0.1l1.4-6.2q-0.1-1 0.1-1.1l2.6-14.3 0.3-2.9q2.3-6.5 2.6-13.1 0.7-1.3 0-2.7 1 0.2 1.1-0.8c0.3-4.6 1.8-8.7 2-13.6q0.3-0.7 0.2-2 0.8-0.4 1-1.5 1-4.7 1.4-9 0.1-0.3 0.2-0.6 0.1-0.2 0.4-0.3 0.2-0.2 0.5-0.2 0.3-0.1 0.5 0l40.6 13.7q-0.5 1.1-0.2 1.1-0.8 0.3-1 0.9-2.3 5.5-3.2 11.6l-1.4 3.3q-5.9 16.5-8.9 26.7-0.2 0.9 0.5 0.8-0.5 0.5-0.6 0.8-2.2 4-2.7 8.6-0.5 0.4-0.1 1.4-0.2-0.1-0.3-0.1-0.4 0-0.5 0.4l-5.4 16.1-1.5 5.4q0 0.2-0.2 0.3-0.1 0.1-0.2 0.2-0.2 0.1-0.3 0.1-0.2 0.1-0.4 0c-4.6-1.2-10.3-1.6-13.8-2.2-7.4-1.2-15.5-3.3-22.9-2.8q-10.5 0.7-21.1 1.5l-4.7 0.4q0.6-0.1 0.6-0.4-0.2-2.4-1.2-4.6l-0.1-7.5q0.4-5.9-0.8-11.5l-0.4-3.1 0.2-0.5q0-0.2 0-0.3-0.1-0.2-0.2-0.3-0.1-0.1-0.2-0.1-0.1 0-0.3 0l-6.6 2q-0.1 0-0.2 0.1-0.1 0.1-0.2 0.2 0 0.1-0.1 0.2 0 0.1 0 0.3l1.6 17.5q0.5 2.1 0 4.5-14.9 2.5-29.6 4.7c-0.5 0-0.9 0.4-1.2 0.8q-1.1-0.4-2.5 0.2l-2.6-12.1-0.4-1q0.2 0.1 0.4 0 0.2-0.1 0.2-0.3l-1-4.4q-0.3-1.1-0.8-0.1l-1.2 2q-3 5-6 10.3-0.4 0.7 0.2 1.4-0.1 0.1-0.3 0.2l-2.5 1.6h-3.7q-5.2-0.3-10.1 0.9l-4 0.4-23.6 0.9q-0.6 0-1-0.3l-16.2-11q-0.3-0.2-0.6-0.3-0.2-0.1-0.6-0.1-0.3-0.1-0.6 0-0.3 0-0.6 0.2l-25.2 11.2q-0.3 0.1-0.6 0.2-0.3 0.1-0.6 0.1-0.3 0-0.6-0.1-0.3 0-0.5-0.1-16.9-6.2-34.3-12.1-1.7-0.5-3-1.7-0.1-0.1-0.2-0.2-0.1-0.1-0.1-0.2-0.1-0.1-0.1-0.2-0.1-0.1-0.1-0.2l-2-7.3-0.5-2.8q0.1-4.7-1.5-9 0 0.5-0.3 0-0.2-0.2-0.4-0.2-0.5 0-0.4 0.1c-4.7 2.1-1.6 9.8-0.2 14l0.2 1.7q0.4 7 2.8 13.4-0.1 0.9 0.7 2.2l-8.8 1.4-4.9 0.6q-3.8-0.5-7.4-0.2c-7.9 0.8-15.8 1.2-23.6 2q-0.2 0.1-0.4 0-0.2-0.1-0.3-0.2-0.2-0.1-0.2-0.3-0.1-0.2-0.1-0.4 1.9-13.5 1.7-27 1-1.2-0.1-2.5 0.1 0 0.2-0.2 0.1-0.2 0-0.3l-37.1-42.9q-0.1-0.2-0.3-0.2-0.1 0.1-0.3 0.1l-0.9-0.6 42.4-23.3q0.2-0.2 0.5-0.2 0.3 0 0.5 0.1 0.3 0 0.5 0.2 0.2 0.2 0.3 0.4l12.5 27.4q0.3 0.6 0.8 0.2 1.1-0.6 0.7-1.1zm-0.6 18.4q-0.1 0.1-0.2 0.1 0 0.1-0.1 0.1-0.1 0-0.2-0.1-0.1 0-0.1-0.1l-16.5-36q0-0.1-0.1-0.1 0-0.1-0.1-0.1-0.1 0-0.1 0-0.1 0-0.2 0l-28 15.5q-0.1 0.1-0.1 0.1-0.1 0.1-0.1 0.2 0 0 0 0.1 0 0.1 0.1 0.1l34.3 39.8q0.1 0 0.1 0 0 0.1 0 0.1 0 0 0 0 0 0.1 0 0.1l-1.6 24.4q0 0.1 0 0.2 0 0 0.1 0.1 0 0 0.1 0.1 0.1 0 0.1 0l28.1-1.9q0.1 0 0.2-0.1 0 0 0.1-0.1 0 0 0-0.1 0-0.1 0-0.1l-4.7-24.1q0 0 0 0 0-0.1 0-0.1 0 0 0-0.1 0 0 0 0l30.2-36.2q0 0 0.1-0.1 0-0.1 0-0.1 0-0.1-0.1-0.2 0 0-0.1-0.1l-25.3-13.9q-0.1 0-0.1 0-0.1 0-0.2 0 0 0-0.1 0.1 0 0-0.1 0.1zm234.6 17.7q1.9-11.5 1.5-23l0.6-24.3q0-0.3-0.1-0.5 0-0.2-0.2-0.3-0.1-0.2-0.3-0.3-0.2 0-0.5 0l-24.5-0.4q-0.1 0-0.2 0-0.1 0.1-0.2 0.1-0.1 0.1-0.1 0.2-0.1 0.1-0.1 0.3l1.6 24.7q0 0 0 0.1-0.1 0.1-0.1 0.1 0 0-0.1 0.1 0 0-0.1 0l-22 1.3q-0.1 0-0.2 0-0.1 0-0.2-0.1-0.1-0.1-0.1-0.2-0.1-0.1-0.1-0.2l-2.2-30.9q0-0.5-0.4-0.4l-25.9 4.7q-0.2 0-0.4 0.2-0.1 0.1-0.2 0.4 0 0.2 0.1 0.4 0.1 0.2 0.3 0.4l10 5.6q0.5 0.3 0.2 0.8l-7 12.9q-0.1 0-0.1 0.1 0 0.1 0 0.2 0 0.1 0 0.1 0 0.1 0 0.2l2.7 16.7q0.1 0.7 0.7 0.9l6.9 3.5q0.7 0.3 0.3 1l-5.2 9.8q0 0-0.1 0.1 0 0.1 0 0.2 0 0.1 0 0.2 0 0.1 0 0.2l3.3 19.8q0.1 0.6 0.7 0.5l19.5-2.9q0.1 0 0.1-0.1 0.1 0 0.2-0.1 0-0.1 0-0.2 0.1 0 0.1-0.1l-1.5-20.9q-0.1-0.6 0.5-0.8l20.5-6.2q0.6-0.1 0.6 0.4l2.1 29.1q0 0.4 0.4 0.4l17.9-1q0.9 0 0.9-0.9zm-124.6-47.2c-2.9 0-4.2 0.5-5.6 3.1q-2.4 4.6-5.4 9.4-0.1 0.1-0.1 0.2 0 0.2 0 0.3 0 0.2 0 0.3 0.1 0.1 0.2 0.2l7.9 8.4q0.1 0.1 0.1 0.2 0.1 0.1 0.1 0.2 0.1 0.1 0.1 0.2 0 0.1 0 0.2l-0.9 9.6q0 0.2 0 0.3 0 0.1 0.1 0.2 0 0.1 0.1 0.2 0.1 0.1 0.2 0.1l24.1 12.1q0.1 0.1 0.2 0.2 0.1 0 0.1 0.1 0 0.2 0 0.3 0 0.1-0.1 0.2l-6.3 9.2q-0.3 0.5-0.8 0.2l-18.6-11.5q-0.1 0-0.2 0-0.1 0-0.2 0-0.1 0.1-0.2 0.1 0 0.1 0 0.2l-3 21.4q0 0.2 0 0.3 0.1 0.1 0.1 0.2 0 0.1 0.1 0.1 0.1 0.1 0.2 0.2l11 7.3q0.1 0.1 0.2 0.2 0.1 0 0.2 0.1 0.2 0 0.3 0 0.1 0 0.3 0l35.4-2.7q0.1 0 0.2-0.1 0.1 0 0.2-0.1 0.1 0 0.2-0.1 0-0.1 0.1-0.2l13.9-26q0.1-0.2 0.1-0.3 0.1-0.2 0-0.4 0-0.1-0.2-0.2-0.1-0.2-0.2-0.2l-39.7-20.4q-0.1-0.1-0.2-0.2-0.1-0.1-0.1-0.2 0-0.1 0-0.2 0-0.1 0.1-0.2l5.5-8.5q0.3-0.4 0.7-0.2l20.2 12.5q0.1 0.1 0.3 0.1 0.2 0 0.4 0 0.1-0.1 0.3-0.2 0.1-0.1 0.2-0.2l9.4-17.3q0.1-0.1 0.1-0.2 0-0.1 0-0.1 0-0.1-0.1-0.2 0-0.1-0.1-0.1l-23-12.8q-0.1-0.1-0.3-0.1-0.1-0.1-0.3-0.1-0.1 0-0.3 0-0.1 0-0.3 0-13.3 2.7-26.8 4.4 0 0 0 0 0 0 0 0 0 0 0 0 0 0 0 0l0.2 0.3q0 0 0 0.1 0 0 0 0 0 0.1-0.1 0.1 0 0 0 0zm150.7-0.8q0 0 0 0-0.1 0-0.1 0 0 0 0 0 0 0.1 0 0.1c-4.3 23.7-8.5 47.5-13.3 71.1q-0.1 0.5 0.4 0.6l18.1 3q0.2 0 0.3 0 0.2-0.1 0.3-0.2 0.1 0 0.2-0.1 0.1-0.2 0.2-0.3l20.8-64.5q0.2-0.5-0.4-0.7-12.7-4-26.5-9zm-163.1 23.5q-8.5-9.4-17.1-18.3-0.2-0.2-0.3-0.3-0.2-0.1-0.4-0.2-0.2-0.1-0.4-0.2-0.3-0.1-0.5-0.1l-29.3-3.5q-0.5-0.1-0.9 0.3l-3.8 3.5q-0.5 0.4 0.1 0.7l6.9 3.6q1.1 0.6 0.3 1.6l-23.1 27.8q-0.2 0.2-0.3 0.5-0.1 0.2-0.2 0.5-0.1 0.3-0.1 0.5 0 0.3 0 0.6l4.1 21.6q0 0.2 0.1 0.3 0.1 0.1 0.1 0.2 0.1 0.1 0.2 0.2 0.2 0.1 0.3 0.1l31 10.9q0.2 0.1 0.5 0.2 0.2 0 0.5 0 0.2 0 0.5-0.1 0.2 0 0.4-0.1l27.8-12.3q1.5-0.7 1.7-2.3 1.8-16.9 4-32.2c0.3-2-1.1-2.5-2.1-3.5z"/>
	<path id="Layer" class="s3" d="m43 50.2c8.2 13.7 9.4 30.2-0.7 43.7q-8.6 11.8-24.2 13.2-0.8-34 24.9-56.9z"/>
	<path id="Layer" class="s3" d="m222.7 90.8l15.4-32.4q0.1-0.1 0.1-0.1 0.1-0.1 0.1-0.1 0.1 0 0.2 0 0 0 0.1 0l25.3 13.9q0.1 0.1 0.1 0.1 0.1 0.1 0.1 0.2 0 0 0 0.1-0.1 0.1-0.1 0.1l-30.2 36.2q0 0 0 0 0 0.1 0 0.1 0 0 0 0.1 0 0 0 0l4.7 24.1q0 0 0 0.1 0 0.1 0 0.1-0.1 0.1-0.1 0.1-0.1 0.1-0.2 0.1l-28.1 1.9q0 0-0.1 0-0.1-0.1-0.1-0.1-0.1-0.1-0.1-0.1 0-0.1 0-0.2l1.6-24.4q0 0 0-0.1 0 0 0 0 0 0 0-0.1 0 0-0.1 0l-34.3-39.8q-0.1 0-0.1-0.1 0-0.1 0-0.1 0-0.1 0.1-0.2 0 0 0.1-0.1l28-15.5q0.1 0 0.2 0 0 0 0.1 0 0.1 0 0.1 0.1 0.1 0 0.1 0.1l16.5 36q0 0.1 0.1 0.1 0.1 0.1 0.2 0.1 0.1 0 0.1-0.1 0.1 0 0.2-0.1z"/>
	<path id="Layer" class="s3" d="m458.7 85.5c-1.3 7.7-0.9 15.2-1.5 23l-0.4 21.9q0 0.9-0.9 0.9l-17.8 1q-0.5 0-0.5-0.4l-2.1-29.1q0-0.5-0.5-0.3l-20.6 6.1q-0.5 0.2-0.5 0.8l1.5 20.9q0 0.1 0 0.2-0.1 0.1-0.1 0.1-0.1 0.1-0.2 0.1 0 0.1-0.1 0.1l-19.5 2.9q-0.6 0.1-0.6-0.4l-3.4-19.9q0-0.1 0-0.2 0-0.1 0-0.2 0-0.1 0-0.2 0.1 0 0.1-0.1l5.2-9.8q0.4-0.7-0.3-1l-6.9-3.4q-0.6-0.3-0.7-1l-2.7-16.7q0-0.1 0-0.1 0-0.1 0-0.2 0-0.1 0-0.2 0.1 0 0.1-0.1l7.1-12.9q0.2-0.5-0.3-0.8l-10-5.6q-0.2-0.1-0.3-0.4-0.1-0.2-0.1-0.4 0.1-0.2 0.2-0.4 0.2-0.2 0.4-0.2l25.9-4.7q0.4 0 0.4 0.4l2.2 31q0 0.1 0.1 0.2 0 0 0.1 0.1 0.1 0.1 0.2 0.1 0.1 0 0.2 0l22-1.3q0.1 0 0.1 0 0.1 0 0.1-0.1 0.1 0 0.1-0.1 0 0 0-0.1l-1.5-24.7q0-0.1 0-0.2 0-0.2 0.1-0.2 0.1-0.1 0.2-0.2 0.1 0 0.2 0l24.6 0.4q0.2 0 0.4 0.1 0.2 0 0.3 0.2 0.2 0.2 0.3 0.4 0 0.2 0 0.4z"/>
	<path id="Layer" class="s3" d="m332.7 61.1l-0.2-0.3q0 0 0 0 0 0 0 0 0 0 0 0 0 0 0 0 13.5-1.7 26.8-4.3 0.2-0.1 0.3-0.1 0.2 0 0.3 0 0.2 0.1 0.3 0.1 0.2 0.1 0.3 0.1l23 12.8q0.1 0.1 0.1 0.1 0.1 0.1 0.1 0.2 0 0.1 0 0.1 0 0.1-0.1 0.2l-9.4 17.3q-0.1 0.2-0.2 0.3-0.2 0.1-0.3 0.1-0.2 0.1-0.4 0-0.2 0-0.3-0.1l-20.2-12.4q-0.4-0.3-0.7 0.1l-5.5 8.6q-0.1 0.1-0.1 0.2 0 0.1 0 0.2 0 0.1 0.1 0.2 0.1 0 0.2 0.1l39.7 20.4q0.1 0.1 0.2 0.2 0.2 0.1 0.2 0.3 0.1 0.1 0 0.3 0 0.1-0.1 0.3l-13.9 26q-0.1 0.1-0.1 0.2-0.1 0.1-0.2 0.2-0.1 0-0.2 0-0.1 0.1-0.2 0.1l-35.4 2.7q-0.2 0-0.3 0-0.1 0-0.3 0-0.1-0.1-0.2-0.1-0.1-0.1-0.2-0.1l-11-7.4q-0.1-0.1-0.2-0.1-0.1-0.1-0.1-0.2 0-0.1-0.1-0.2 0-0.1 0-0.2l3-21.4q0-0.1 0-0.2 0.1-0.1 0.2-0.2 0.1 0 0.2 0 0.1 0 0.2 0l18.6 11.5q0.5 0.3 0.8-0.2l6.3-9.2q0.1-0.1 0.1-0.2 0-0.1 0-0.2 0-0.1-0.1-0.2-0.1-0.1-0.2-0.2l-24.1-12.1q-0.1 0-0.2-0.1-0.1-0.1-0.1-0.2-0.1-0.1-0.1-0.2 0-0.1 0-0.2l0.9-9.6q0-0.1 0-0.3 0-0.1-0.1-0.2 0-0.1-0.1-0.2 0-0.1-0.1-0.2l-7.9-8.4q-0.1-0.1-0.2-0.2 0-0.1 0-0.3 0-0.1 0-0.2 0-0.2 0.1-0.3 3-4.8 5.4-9.3c1.4-2.6 2.7-3.2 5.6-3.2q0 0 0 0 0.1 0 0.1-0.1 0 0 0 0 0-0.1 0-0.1z"/>
	<path id="Layer" class="s3" d="m483.3 60.5q13.8 5 26.5 9 0.6 0.2 0.4 0.8l-20.8 64.4q-0.1 0.2-0.2 0.3-0.1 0.1-0.2 0.2-0.1 0-0.3 0.1-0.1 0-0.3 0l-18.1-3q-0.5-0.1-0.4-0.6c4.8-23.6 9-47.4 13.3-71.1q0 0 0 0 0-0.1 0-0.1 0 0 0.1 0 0 0 0 0z"/>
	<path id="Layer" fill-rule="evenodd" class="s3" d="m320.2 84.1c1 1 2.4 1.4 2.1 3.4q-2.2 15.3-4 32.2-0.2 1.7-1.7 2.3l-27.8 12.3q-0.2 0.1-0.4 0.1-0.3 0.1-0.5 0.1-0.3 0-0.5 0-0.3-0.1-0.5-0.2l-31-10.8q-0.1-0.1-0.3-0.2-0.1 0-0.2-0.1 0-0.2-0.1-0.3-0.1-0.1-0.1-0.2l-4.1-21.7q0-0.3 0-0.5 0-0.3 0.1-0.6 0.1-0.3 0.2-0.5 0.1-0.2 0.3-0.5l23.1-27.8q0.8-1-0.3-1.6l-6.9-3.6q-0.6-0.3-0.1-0.7l3.8-3.5q0.4-0.4 0.9-0.3l29.3 3.5q0.2 0.1 0.5 0.1 0.2 0.1 0.4 0.2 0.2 0.1 0.4 0.2 0.1 0.1 0.3 0.3 8.6 8.9 17.1 18.4zm-31.7 28q0.1 0.1 0.2 0.1 0.1 0 0.2 0 0.1-0.1 0.2-0.1 0.1-0.1 0.2-0.1l11.4-11.2q0.1-0.1 0.1-0.2 0.1-0.1 0.1-0.2 0-0.2 0-0.3 0-0.1-0.1-0.2l-8.3-14.8q-0.1-0.1-0.2-0.2-0.1-0.1-0.2-0.1-0.2-0.1-0.3-0.1-0.1 0-0.2 0.1l-16.2 5.2q-0.1 0.1-0.2 0.1-0.1 0.1-0.1 0.2-0.1 0.1-0.1 0.2-0.1 0.1-0.1 0.3l0.4 15.5q0 0.1 0 0.2 0.1 0.1 0.1 0.2 0.1 0.1 0.2 0.2 0.1 0.1 0.2 0.1z"/>
	<path id="Layer" class="s2" d="m144.7 80.9q1 21.3-5.7 41.4c-10.8 32.6-42.9 48.6-76 41.7-28.4-5.9-43.1-29.4-44.9-56.9q15.6-1.4 24.2-13.2 11.8 3.5 24.2 4.4c-26.3 21.8-8.6 63.8 25.4 58.4 16.4-2.7 28.4-14.9 30.2-31.7 1.2-11.6-2.7-21.1-12.2-27.7q5.3-1.3 10.3-2.9 13.1-4.2 24.5-13.5z"/>
	<path id="Layer" fill-rule="evenodd" class="s4" d="m288.5 112.1l-12.7-5.1q-0.1 0-0.2-0.1-0.1-0.1-0.2-0.2 0-0.1-0.1-0.2 0-0.1 0-0.2l-0.4-15.5q0-0.2 0.1-0.3 0-0.1 0.1-0.2 0-0.1 0.1-0.2 0.1 0 0.2-0.1l16.2-5.2q0.1-0.1 0.2-0.1 0.1 0 0.3 0.1 0.1 0 0.2 0.1 0.1 0.1 0.2 0.2l8.3 14.8q0.1 0.1 0.1 0.2 0 0.1 0 0.3 0 0.1-0.1 0.2 0 0.1-0.1 0.2l-11.4 11.2q-0.1 0-0.2 0.1-0.1 0-0.2 0.1-0.1 0-0.2 0-0.1 0-0.2-0.1zm-5.4-10c3.3 3.6 6.3 0.1 8.5-2q0.1-0.1 0.1-0.2 0.1-0.1 0.1-0.2 0.1-0.2 0.1-0.3 0-0.1 0-0.2-0.6-2.9-2.4-5.3-0.1-0.1-0.2-0.2-0.1 0-0.2-0.1-0.1 0-0.2-0.1-0.1 0-0.2 0-3.5-0.3-6.1 2.1-0.4 0.3-0.4 0.7c0 1.9-0.4 4.5 0.9 5.8z"/>
	<path id="Layer" class="s5" d="m458.7 85.5q0.4 11.6-1.5 23c0.6-7.8 0.2-15.3 1.5-23z"/>
	<path id="Layer" class="s3" d="m109.9 97.3c9.5 6.6 13.4 16.1 12.2 27.7-1.8 16.8-13.8 29-30.2 31.7-34 5.5-51.7-36.6-25.4-58.4 13.6-10.3 29.2-9.9 43.4-1z"/>
</svg>