<svg version="1.2" xmlns="http://www.w3.org/2000/svg" viewBox="0 0 162 180" width="162" height="180">
	<title>Logo-yoshi-mini-svg-svg</title>
	<style>
		.s0 { fill: #ffffff;stroke: #eaeaea } 
		.s1 { fill: #000000 } 
		.s2 { fill: #ffffff } 
		.s3 { fill: #72bf44 } 
	</style>
	<path id="Layer" class="s0" d="m144.7 80.9q-11.4 9.3-24.5 13.5-5 1.6-10.3 2.9"/>
	<path id="Layer" fill-rule="evenodd" class="s1" d="m97.3 15.3q2.4-0.7 4.3 0c25.7 0.9 42.7 16.7 48.6 41.2q0.1 0.1 0.1 0.2 0 0 0.1 0.1 0.1 0 0.1 0.1 0.1 0 0.2 0l0.3 0.1q0.4 0.4 0.2 1.6l2.6 16 0.6 6.2q-0.8 5.1-0.2 10.3l-0.4 6.1-1.8 12.1-0.1 1.6q-1.3 1.1-0.7 3.2-0.3 0.6-0.3 1.9-1 0.2-0.9 2.3-0.3 0.8-0.2 1-1.5 2.9-1.8 5.9l-6.6 14.7-1.2 2.3q-3 2.5-4.3 6.2l-9.1 9q-14.1 11.1-30.9 15.3-0.6 0.2-0.3 0.4-2.9-0.4-4.7 0.8-0.2 0.2-0.9 0.1l-8.1 0.9-10-0.2q-13.5-1.5-25.5-6.6-0.6-0.3-0.7 0.2l-2-1.1q0.1-0.1 0.2-0.2 0.1-0.1 0-0.1l-12.2-7.9-5.1-5.3-5.6-7.3q-0.7-0.6-0.8-1l-6.2-12.3q0-0.7-0.2-0.9 0-3-1.8-5.2 0.1-0.4-0.2-0.9 0.5-2-0.7-2.7 0-1-0.5-1.6 0.9-0.5 0.3-2-0.2-0.6-0.9 0 0.3-1.8-0.4-3.1 0.9-2.5-0.4-4.1-1.3-8.7 0-17.5 1.3-1.6 0.5-3.5l0.5-2.6q0.8-0.6 0.9-1.8c2.3-20.3 20-40 35.6-52.4l1-0.8q1.6-0.5 3-2 1.7-0.6 3-2l5.1-3q0.5-1.1 1.9-1l4-2q1.7-1.5 4-2.1l4.7-1.6q-0.6-0.2 0.3-0.3 1.6 0.1 2.6-0.9l0.4-0.1q1.6 0.1 2.6-0.9l0.9-0.1q2.1 0.2 2.9-0.9l1.1-0.2zm-54.3 35q-25.7 22.9-24.9 56.9c1.8 27.5 16.5 51 44.9 56.9 33.1 6.9 65.2-9.1 76-41.7q6.7-20.1 5.6-41.4l-0.5-9.8q-1.3-11-6-22c-6.5-15.1-17.5-23.1-34-24.5-22.7-1-45 10.1-61.1 25.6z"/>
	<path id="Layer" class="s0" d="m66.5 98.3q-12.4-0.9-24.2-4.4"/>
	<path id="Layer" class="s2" d="m104.1 24.6q-10.4 9-9.1 21.2c2.1 20.1 25 33 43.8 27q2.7-0.8 5.3-1.7l0.6 9.8q-11.4 9.3-24.5 13.5-5 1.6-10.3 2.9c-14.2-8.9-29.8-9.3-43.4 1q-12.4-0.9-24.2-4.4c10.1-13.5 8.9-30 0.7-43.7 16.2-15.5 38.4-26.6 61.1-25.6z"/>
	<path id="Layer" class="s3" d="m104.1 24.6c16.5 1.4 27.6 9.4 34 24.5q4.7 11.1 6 22-2.6 0.9-5.3 1.7c-18.8 6-41.7-6.9-43.8-27q-1.3-12.2 9.1-21.2z"/>
	<path id="Layer" class="s3" d="m43 50.2c8.2 13.7 9.4 30.2-0.7 43.7q-8.6 11.8-24.2 13.2-0.8-34 24.9-56.9z"/>
	<path id="Layer" class="s2" d="m144.7 80.9q1 21.3-5.7 41.4c-10.8 32.6-42.9 48.6-76 41.7-28.4-5.9-43.1-29.4-44.9-56.9q15.6-1.4 24.2-13.2 11.8 3.5 24.2 4.4c-26.3 21.8-8.6 63.8 25.4 58.4 16.4-2.7 28.4-14.9 30.2-31.7 1.2-11.6-2.7-21.1-12.2-27.7q5.3-1.3 10.3-2.9 13.1-4.2 24.5-13.5z"/>
	<path id="Layer" class="s3" d="m109.9 97.3c9.5 6.6 13.4 16.1 12.2 27.7-1.8 16.8-13.8 29-30.2 31.7-34 5.5-51.7-36.6-25.4-58.4 13.6-10.3 29.2-9.9 43.4-1z"/>
</svg>