<?xml version="1.0" encoding="utf-8"?>
<svg viewBox="0 0 530 180" xmlns="http://www.w3.org/2000/svg">
  <path stroke="#eaeaea" vector-effect="non-scaling-stroke" d=" M 144.66 80.94 Q 133.28 90.16 120.17 94.39 Q 115.25 95.97 109.86 97.31" style="fill: rgb(255, 255, 255);" transform="matrix(0.9999999999999999, 0, 0, 1, -7.105427357601002e-15, 0)"/>
  <path fill="#000000" d=" M 97.32 15.25 Q 99.75 14.56 101.61 15.33 C 127.33 16.24 144.33 32.03 150.23 56.51 A 0.57 0.56 87.5 0 0 150.68 56.93 L 151.00 56.99 Q 151.45 57.41 151.21 58.65 L 153.80 74.64 L 154.37 80.85 Q 153.59 85.88 154.25 91.14 L 153.85 97.16 L 152.02 109.31 L 151.90 110.89 Q 150.62 111.95 151.20 114.14 Q 150.92 114.73 150.94 115.96 Q 149.95 116.21 150.05 118.27 Q 149.68 119.06 149.85 119.31 Q 148.28 122.21 148.02 125.23 L 141.41 139.89 L 140.17 142.20 Q 137.16 144.73 135.87 148.38 L 126.76 157.40 Q 112.73 168.52 95.95 172.72 Q 95.35 172.87 95.56 173.06 Q 92.74 172.66 90.90 173.86 Q 90.70 174.09 90.03 174.00 L 81.94 174.86 L 71.91 174.75 Q 58.44 173.24 46.45 168.10 Q 45.85 167.84 45.72 168.29 L 43.73 167.17 Q 43.78 167.05 43.92 166.99 Q 44.04 166.93 43.93 166.86 L 31.74 158.99 L 26.59 153.74 L 20.97 146.37 Q 20.29 145.76 20.19 145.40 L 14.04 133.05 Q 14.05 132.38 13.83 132.23 Q 13.80 129.21 12.03 127.05 Q 12.06 126.57 11.81 126.09 Q 12.33 124.12 11.08 123.43 Q 11.09 122.43 10.56 121.83 Q 11.46 121.33 10.94 119.81 Q 10.71 119.15 10.02 119.76 Q 10.30 117.97 9.65 116.67 Q 10.48 114.22 9.19 112.61 Q 7.95 103.91 9.21 95.13 Q 10.54 93.50 9.66 91.63 L 10.20 89.01 Q 10.97 88.43 11.11 87.16 C 13.40 66.86 31.15 47.20 46.66 34.85 L 47.75 34.05 Q 49.33 33.47 50.75 32.02 Q 52.43 31.39 53.73 30.05 L 58.78 26.99 Q 59.34 25.90 60.69 26.00 L 64.71 23.98 Q 66.44 22.46 68.67 21.95 L 73.39 20.28 Q 72.83 20.13 73.74 19.97 Q 75.28 20.06 76.28 19.06 L 76.73 18.97 Q 78.31 19.14 79.32 18.08 L 80.23 17.97 Q 82.28 18.20 83.06 17.06 L 84.21 16.94 L 97.32 15.25 Z M 43.02 50.19 Q 17.34 73.07 18.12 107.11 C 19.92 134.65 34.57 158.08 63.00 163.99 C 96.14 170.87 128.19 154.90 139.02 122.26 Q 145.69 102.16 144.66 80.94 L 144.08 71.07 Q 142.77 60.15 138.08 49.11 C 131.66 33.96 120.65 26.00 104.11 24.56 C 81.39 23.58 59.16 34.74 43.02 50.19 Z" style="" transform="matrix(0.9999999999999999, 0, 0, 1, -7.105427357601002e-15, 0)"/>
  <path stroke="#eaeaea" vector-effect="non-scaling-stroke" d=" M 66.52 98.35 Q 54.13 97.39 42.30 93.89" style="fill: rgb(255, 255, 255);" transform="matrix(0.9999999999999999, 0, 0, 1, -7.105427357601002e-15, 0)"/>
  <path d=" M 104.11 24.56 Q 93.72 33.59 94.98 45.78 C 97.07 65.86 119.98 78.80 138.84 72.83 Q 141.48 71.99 144.08 71.07 L 144.66 80.94 Q 133.28 90.16 120.17 94.39 Q 115.25 95.97 109.86 97.31 C 95.72 88.44 80.09 88.01 66.52 98.35 Q 54.13 97.39 42.30 93.89 C 52.36 80.39 51.21 63.87 43.02 50.19 C 59.16 34.74 81.39 23.58 104.11 24.56 Z" style="fill: rgb(255, 255, 255);" transform="matrix(0.9999999999999999, 0, 0, 1, -7.105427357601002e-15, 0)"/>
  <path fill="#72bf44" d=" M 104.11 24.56 C 120.65 26.00 131.66 33.96 138.08 49.11 Q 142.77 60.15 144.08 71.07 Q 141.48 71.99 138.84 72.83 C 119.98 78.80 97.07 65.86 94.98 45.78 Q 93.72 33.59 104.11 24.56 Z" style="" transform="matrix(0.9999999999999999, 0, 0, 1, -7.105427357601002e-15, 0)"/>
  <path fill="#0b0204" d=" M 223.27 72.44 L 224.35 69.91 Q 229.73 60.64 233.84 50.74 L 234.07 49.58 Q 235.53 48.55 236.93 49.32 Q 248.27 55.64 259.63 61.86 A 1.25 1.25 0.0 0 0 261.10 61.66 L 268.61 54.40 A 1.32 1.32 0.0 0 1 269.64 54.03 L 286.51 55.60 Q 288.05 55.60 289.03 56.06 L 305.49 58.60 Q 306.01 58.68 306.37 59.06 L 315.03 68.06 Q 315.14 68.05 315.25 68.04 Q 315.10 68.61 316.04 68.66 A 0.96 0.95 16.2 0 0 316.92 68.18 L 324.25 55.15 Q 323.51 55.27 324.73 54.85 Q 330.78 54.78 336.40 53.01 L 337.68 52.87 Q 348.31 51.89 358.64 48.96 L 362.40 48.93 Q 364.74 51.57 368.13 52.75 Q 369.08 52.79 368.65 53.01 L 373.98 55.87 Q 374.55 56.18 374.62 55.53 Q 374.78 53.93 376.36 53.18 L 379.24 52.93 L 414.56 46.72 A 1.31 1.30 82.2 0 1 416.08 47.88 L 416.88 56.06 L 417.21 59.85 L 418.30 78.22 A 0.92 0.92 0.0 0 0 419.28 79.09 L 426.50 78.61 A 0.67 0.66 85.8 0 0 427.12 77.88 L 426.20 68.07 L 425.77 59.12 L 426.00 53.33 Q 426.02 52.79 426.57 52.77 C 433.59 52.56 440.97 53.32 448.76 52.60 L 466.07 52.93 A 0.88 0.88 0.0 0 1 466.92 53.64 Q 467.26 55.32 466.69 56.65 L 465.07 103.05 L 464.76 108.85 Q 463.76 111.25 464.13 113.25 Q 464.87 117.17 464.32 120.08 Q 464.30 120.18 464.31 120.19 Q 464.44 120.23 464.57 120.27 Q 464.71 120.32 464.75 120.17 L 466.12 113.97 Q 466.04 112.97 466.25 112.91 L 468.85 98.64 L 469.15 95.74 Q 471.44 89.23 471.69 82.58 Q 472.35 81.29 471.74 79.93 Q 472.70 80.08 472.77 79.08 C 473.10 74.47 474.64 70.44 474.78 65.53 Q 475.10 64.80 475.01 63.52 Q 475.76 63.07 476.00 62.00 Q 477.03 57.31 477.44 52.95 A 1.20 1.20 0.0 0 1 479.02 51.92 L 519.63 65.58 Q 519.08 66.74 519.37 66.75 Q 518.64 67.02 518.40 67.60 Q 516.15 73.14 515.16 79.19 L 513.84 82.55 Q 507.91 99.02 504.93 109.23 Q 504.68 110.09 505.44 110.04 Q 504.86 110.54 504.81 110.80 Q 502.58 114.81 502.10 119.42 Q 501.59 119.77 502.02 120.76 Q 501.85 120.74 501.71 120.74 Q 501.33 120.75 501.21 121.10 L 495.76 137.25 L 494.30 142.60 A 0.89 0.89 0.0 0 1 493.22 143.22 C 488.63 142.00 482.89 141.63 479.36 141.04 C 472.05 139.81 463.94 137.67 456.54 138.19 Q 446.03 138.92 435.41 139.66 L 430.71 140.08 Q 431.29 139.99 431.27 139.75 Q 431.06 137.26 430.13 135.06 L 429.99 127.59 Q 430.37 121.74 429.20 116.14 L 428.81 113.00 L 428.97 112.45 A 0.51 0.51 0.0 0 0 428.33 111.82 L 421.75 113.79 A 0.76 0.75 -11.1 0 0 421.22 114.57 L 422.82 132.07 Q 423.30 134.16 422.78 136.62 Q 407.94 139.09 393.18 141.26 C 392.67 141.33 392.33 141.70 391.98 142.05 Q 390.87 141.75 389.49 142.28 L 386.88 130.17 L 386.53 129.25 Q 386.69 129.28 386.88 129.21 Q 387.12 129.14 387.06 128.91 L 386.07 124.48 Q 385.84 123.45 385.31 124.36 L 384.10 126.44 Q 381.06 131.45 378.12 136.65 Q 377.67 137.45 378.28 138.09 Q 378.21 138.20 378.01 138.29 L 375.52 139.86 L 371.76 139.88 Q 366.61 139.62 361.67 140.85 L 357.75 141.25 L 334.07 142.09 Q 333.54 142.11 333.11 141.82 L 316.90 130.78 A 2.44 2.43 50.2 0 0 314.52 130.56 L 289.28 141.80 A 3.15 3.09 -46.7 0 1 286.96 141.89 Q 270.09 135.75 252.72 129.84 Q 251.02 129.27 249.68 128.08 A 1.62 1.61 -77.4 0 1 249.20 127.32 L 247.18 120.00 L 246.74 117.19 Q 246.81 112.45 245.19 108.20 Q 245.25 108.70 244.89 108.20 Q 244.75 108.01 244.51 108.00 Q 244.05 107.98 244.07 108.13 C 239.45 110.24 242.53 117.93 243.91 122.11 L 244.13 123.79 Q 244.51 130.77 246.94 137.15 Q 246.79 138.08 247.64 139.45 L 238.84 140.76 L 233.89 141.36 Q 230.14 140.90 226.50 141.24 C 218.60 141.97 210.71 142.41 202.86 143.25 A 0.84 0.84 0.0 0 1 201.94 142.30 Q 203.81 128.83 203.58 115.33 Q 204.62 114.11 203.49 112.80 Q 203.59 112.79 203.72 112.61 Q 203.85 112.44 203.71 112.28 L 166.64 69.36 Q 166.52 69.22 166.34 69.25 Q 166.16 69.27 166.03 69.27 L 165.11 68.75 L 207.50 45.36 A 1.27 1.27 0.0 0 1 209.27 45.94 L 221.81 73.29 Q 222.08 73.89 222.64 73.54 Q 223.68 72.91 223.27 72.44 Z M 222.66 90.81 A 0.33 0.33 0.0 0 1 222.07 90.81 L 205.59 54.77 A 0.33 0.33 0.0 0 0 205.13 54.62 L 177.07 70.13 A 0.33 0.33 0.0 0 0 176.98 70.64 L 211.34 110.37 A 0.33 0.33 0.0 0 1 211.42 110.61 L 209.80 135.04 A 0.33 0.33 0.0 0 0 210.15 135.39 L 238.23 133.46 A 0.33 0.33 0.0 0 0 238.53 133.06 L 233.78 109.03 A 0.33 0.33 0.0 0 1 233.85 108.76 L 264.00 72.63 A 0.33 0.33 0.0 0 0 263.91 72.13 L 238.60 58.24 A 0.33 0.33 0.0 0 0 238.14 58.39 L 222.66 90.81 Z M 457.23 108.51 Q 459.12 97.07 458.68 85.49 L 459.34 61.18 A 1.08 1.08 0.0 0 0 458.27 60.07 L 433.73 59.69 A 0.56 0.56 0.0 0 0 433.17 60.28 L 434.70 85.01 A 0.29 0.28 87.1 0 1 434.43 85.32 L 412.39 86.64 A 0.52 0.52 0.0 0 1 411.84 86.16 L 409.63 55.18 Q 409.60 54.76 409.18 54.83 L 383.34 59.49 A 0.75 0.75 0.0 0 0 383.10 60.88 L 393.15 66.53 Q 393.63 66.80 393.37 67.28 L 386.30 80.20 A 0.95 0.93 54.7 0 0 386.20 80.82 L 388.92 97.52 Q 389.03 98.17 389.62 98.46 L 396.51 101.87 Q 397.20 102.21 396.84 102.90 L 391.62 112.67 A 1.08 1.07 -35.9 0 0 391.50 113.39 L 394.86 133.26 Q 394.95 133.83 395.53 133.74 L 414.98 130.81 A 0.49 0.49 0.0 0 0 415.39 130.29 L 413.90 109.39 Q 413.86 108.78 414.45 108.60 L 434.97 102.45 Q 435.50 102.29 435.54 102.84 L 437.59 131.87 Q 437.62 132.32 438.06 132.29 L 455.95 131.35 Q 456.84 131.30 456.85 130.41 L 457.23 108.51 Z M 332.56 61.32 C 329.72 61.34 328.44 61.87 327.04 64.46 Q 324.59 69.02 321.60 73.82 A 0.82 0.82 0.0 0 0 321.70 74.82 L 329.58 83.19 A 1.16 1.11 27.2 0 1 329.88 84.07 L 328.98 93.65 A 0.82 0.81 -73.9 0 0 329.42 94.45 L 353.52 106.54 A 0.51 0.51 0.0 0 1 353.71 107.28 L 347.40 116.55 Q 347.10 117.00 346.63 116.71 L 328.01 105.25 A 0.43 0.43 0.0 0 0 327.36 105.56 L 324.44 126.97 A 0.78 0.77 20.9 0 0 324.78 127.71 L 335.76 135.05 A 1.61 1.59 59.7 0 0 336.77 135.32 L 372.17 132.59 A 0.88 0.86 -77.5 0 0 372.88 132.13 L 386.85 106.08 A 0.81 0.80 27.3 0 0 386.50 104.99 L 346.76 84.58 A 0.49 0.49 0.0 0 1 346.57 83.87 L 352.15 75.32 Q 352.42 74.90 352.85 75.16 L 372.99 87.61 A 0.85 0.85 0.0 0 0 374.18 87.30 L 383.65 70.01 A 0.45 0.44 -61.4 0 0 383.48 69.41 L 360.48 56.63 A 1.70 1.69 -35.8 0 0 359.33 56.45 Q 346.02 59.09 332.55 60.79 A 0.02 0.01 76.7 0 0 332.54 60.82 L 332.69 61.10 A 0.15 0.15 0.0 0 1 332.56 61.32 Z M 483.29 60.53 A 0.08 0.07 -73.8 0 0 483.19 60.59 C 478.94 84.29 474.71 108.15 469.89 131.75 Q 469.80 132.22 470.27 132.30 L 488.45 135.28 A 0.83 0.83 0.0 0 0 489.38 134.71 L 510.21 70.25 Q 510.39 69.70 509.84 69.53 Q 497.11 65.51 483.29 60.53 Z M 320.25 84.06 Q 311.71 74.64 303.09 65.71 A 2.64 2.61 71.1 0 0 301.52 64.93 L 272.21 61.39 Q 271.66 61.32 271.26 61.70 L 267.48 65.21 Q 267.05 65.61 267.57 65.88 L 274.51 69.53 Q 275.63 70.12 274.82 71.10 L 251.68 98.94 A 2.57 2.54 59.9 0 0 251.14 101.02 L 255.21 122.67 A 1.03 1.01 -86.1 0 0 255.88 123.45 L 286.87 134.35 A 2.65 2.64 42.9 0 0 288.84 134.28 L 316.64 122.02 Q 318.13 121.36 318.30 119.74 Q 320.12 102.78 322.34 87.51 C 322.63 85.52 321.16 85.07 320.25 84.06 Z" style="" transform="matrix(0.9999999999999999, 0, 0, 1, -7.105427357601002e-15, 0)"/>
  <path fill="#72bf44" d=" M 43.02 50.19 C 51.21 63.87 52.36 80.39 42.30 93.89 Q 33.68 105.68 18.12 107.11 Q 17.34 73.07 43.02 50.19 Z" style="" transform="matrix(0.9999999999999999, 0, 0, 1, -7.105427357601002e-15, 0)"/>
  <path fill="#72bf44" d=" M 222.66 90.81 L 238.14 58.39 A 0.33 0.33 0.0 0 1 238.60 58.24 L 263.91 72.13 A 0.33 0.33 0.0 0 1 264.00 72.63 L 233.85 108.76 A 0.33 0.33 0.0 0 0 233.78 109.03 L 238.53 133.06 A 0.33 0.33 0.0 0 1 238.23 133.46 L 210.15 135.39 A 0.33 0.33 0.0 0 1 209.80 135.04 L 211.42 110.61 A 0.33 0.33 0.0 0 0 211.34 110.37 L 176.98 70.64 A 0.33 0.33 0.0 0 1 177.07 70.13 L 205.13 54.62 A 0.33 0.33 0.0 0 1 205.59 54.77 L 222.07 90.81 A 0.33 0.33 0.0 0 0 222.66 90.81 Z" style="" transform="matrix(0.9999999999999999, 0, 0, 1, -7.105427357601002e-15, 0)"/>
  <path fill="#72bf44" d=" M 458.68 85.49 C 457.43 93.18 457.78 100.73 457.23 108.51 L 456.85 130.41 Q 456.84 131.30 455.95 131.35 L 438.06 132.29 Q 437.62 132.32 437.59 131.87 L 435.54 102.84 Q 435.50 102.29 434.97 102.45 L 414.45 108.60 Q 413.86 108.78 413.90 109.39 L 415.39 130.29 A 0.49 0.49 0.0 0 1 414.98 130.81 L 395.53 133.74 Q 394.95 133.83 394.86 133.26 L 391.50 113.39 A 1.08 1.07 -35.9 0 1 391.62 112.67 L 396.84 102.90 Q 397.20 102.21 396.51 101.87 L 389.62 98.46 Q 389.03 98.17 388.92 97.52 L 386.20 80.82 A 0.95 0.93 54.7 0 1 386.30 80.20 L 393.37 67.28 Q 393.63 66.80 393.15 66.53 L 383.10 60.88 A 0.75 0.75 0.0 0 1 383.34 59.49 L 409.18 54.83 Q 409.60 54.76 409.63 55.18 L 411.84 86.16 A 0.52 0.52 0.0 0 0 412.39 86.64 L 434.43 85.32 A 0.29 0.28 87.1 0 0 434.70 85.01 L 433.17 60.28 A 0.56 0.56 0.0 0 1 433.73 59.69 L 458.27 60.07 A 1.08 1.08 0.0 0 1 459.34 61.18 L 458.68 85.49 Z" style="" transform="matrix(0.9999999999999999, 0, 0, 1, -7.105427357601002e-15, 0)"/>
  <path fill="#72bf44" d=" M 332.69 61.10 L 332.54 60.82 A 0.02 0.01 76.7 0 1 332.55 60.79 Q 346.02 59.09 359.33 56.45 A 1.70 1.69 -35.8 0 1 360.48 56.63 L 383.48 69.41 A 0.45 0.44 -61.4 0 1 383.65 70.01 L 374.18 87.30 A 0.85 0.85 0.0 0 1 372.99 87.61 L 352.85 75.16 Q 352.42 74.90 352.15 75.32 L 346.57 83.87 A 0.49 0.49 0.0 0 0 346.76 84.58 L 386.50 104.99 A 0.81 0.80 27.3 0 1 386.85 106.08 L 372.88 132.13 A 0.88 0.86 -77.5 0 1 372.17 132.59 L 336.77 135.32 A 1.61 1.59 59.7 0 1 335.76 135.05 L 324.78 127.71 A 0.78 0.77 20.9 0 1 324.44 126.97 L 327.36 105.56 A 0.43 0.43 0.0 0 1 328.01 105.25 L 346.63 116.71 Q 347.10 117.00 347.40 116.55 L 353.71 107.28 A 0.51 0.51 0.0 0 0 353.52 106.54 L 329.42 94.45 A 0.82 0.81 -73.9 0 1 328.98 93.65 L 329.88 84.07 A 1.16 1.11 27.2 0 0 329.58 83.19 L 321.70 74.82 A 0.82 0.82 0.0 0 1 321.60 73.82 Q 324.59 69.02 327.04 64.46 C 328.44 61.87 329.72 61.34 332.56 61.32 A 0.15 0.15 0.0 0 0 332.69 61.10 Z" style="" transform="matrix(0.9999999999999999, 0, 0, 1, -7.105427357601002e-15, 0)"/>
  <path fill="#72bf44" d=" M 483.29 60.53 Q 497.11 65.51 509.84 69.53 Q 510.39 69.70 510.21 70.25 L 489.38 134.71 A 0.83 0.83 0.0 0 1 488.45 135.28 L 470.27 132.30 Q 469.80 132.22 469.89 131.75 C 474.71 108.15 478.94 84.29 483.19 60.59 A 0.08 0.07 -73.8 0 1 483.29 60.53 Z" style="" transform="matrix(0.9999999999999999, 0, 0, 1, -7.105427357601002e-15, 0)"/>
  <path fill="#72bf44" d=" M 320.25 84.06 C 321.16 85.07 322.63 85.52 322.34 87.51 Q 320.12 102.78 318.30 119.74 Q 318.13 121.36 316.64 122.02 L 288.84 134.28 A 2.65 2.64 42.9 0 1 286.87 134.35 L 255.88 123.45 A 1.03 1.01 -86.1 0 1 255.21 122.67 L 251.14 101.02 A 2.57 2.54 59.9 0 1 251.68 98.94 L 274.82 71.10 Q 275.63 70.12 274.51 69.53 L 267.57 65.88 Q 267.05 65.61 267.48 65.21 L 271.26 61.70 Q 271.66 61.32 272.21 61.39 L 301.52 64.93 A 2.64 2.61 71.1 0 1 303.09 65.71 Q 311.71 74.64 320.25 84.06 Z M 288.46 112.11 A 0.76 0.76 0.0 0 0 289.28 111.95 L 300.68 100.79 A 0.76 0.76 0.0 0 0 300.81 99.87 L 292.46 85.11 A 0.76 0.76 0.0 0 0 291.56 84.76 L 275.45 90.02 A 0.76 0.76 0.0 0 0 274.92 90.77 L 275.31 106.31 A 0.76 0.76 0.0 0 0 275.78 107.00 L 288.46 112.11 Z" style="" transform="matrix(0.9999999999999999, 0, 0, 1, -7.105427357601002e-15, 0)"/>
  <path d=" M 144.66 80.94 Q 145.69 102.16 139.02 122.26 C 128.19 154.90 96.14 170.87 63.00 163.99 C 34.57 158.08 19.92 134.65 18.12 107.11 Q 33.68 105.68 42.30 93.89 Q 54.13 97.39 66.52 98.35 C 40.20 120.14 57.89 162.15 91.86 156.68 C 108.26 154.04 120.33 141.77 122.08 125.02 C 123.30 113.37 119.40 103.92 109.86 97.31 Q 115.25 95.97 120.17 94.39 Q 133.28 90.16 144.66 80.94 Z" style="fill: rgb(255, 255, 255);" transform="matrix(0.9999999999999999, 0, 0, 1, -7.105427357601002e-15, 0)"/>
  <path fill="#0b0204" d=" M 288.46 112.11 L 275.78 107.00 A 0.76 0.76 0.0 0 1 275.31 106.31 L 274.92 90.77 A 0.76 0.76 0.0 0 1 275.45 90.02 L 291.56 84.76 A 0.76 0.76 0.0 0 1 292.46 85.11 L 300.81 99.87 A 0.76 0.76 0.0 0 1 300.68 100.79 L 289.28 111.95 A 0.76 0.76 0.0 0 1 288.46 112.11 Z M 283.07 102.14 C 286.44 105.73 289.42 102.23 291.58 100.05 A 0.99 0.97 63.4 0 0 291.85 99.20 Q 291.35 96.26 289.47 93.90 A 1.12 1.08 72.6 0 0 288.70 93.48 Q 285.20 93.19 282.59 95.57 Q 282.25 95.88 282.25 96.35 C 282.25 98.16 281.80 100.79 283.07 102.14 Z" style="" transform="matrix(0.9999999999999999, 0, 0, 1, -7.105427357601002e-15, 0)"/>
  <path fill-opacity="0.992" d=" M 458.68 85.49 Q 459.12 97.07 457.23 108.51 C 457.78 100.73 457.43 93.18 458.68 85.49 Z" style="fill: rgb(114, 191, 68);" transform="matrix(0.9999999999999999, 0, 0, 1, -7.105427357601002e-15, 0)"/>
  <path fill="#72bf44" d=" M 109.86 97.31 C 119.40 103.92 123.30 113.37 122.08 125.02 C 120.33 141.77 108.26 154.04 91.86 156.68 C 57.89 162.15 40.20 120.14 66.52 98.35 C 80.09 88.01 95.72 88.44 109.86 97.31 Z" style="" transform="matrix(0.9999999999999999, 0, 0, 1, -7.105427357601002e-15, 0)"/>
</svg>